<svg xmlns="http://www.w3.org/2000/svg" width="20" height="20" fill="none" viewBox="0 0 20 20"><g fill="#fff" clip-path="url(#a)"><path d="M17.698 3.729v1.84a8.9 8.9 0 0 0-4.833-3.976 8.9 8.9 0 0 0-2.863-.472 8.86 8.86 0 0 0-5.534 1.936A8.9 8.9 0 0 0 1.37 7.916a1.151 1.151 0 0 0 2.238.538 6.6 6.6 0 0 1 4.185-4.65 6.6 6.6 0 0 1 2.21-.38c1.439 0 2.806.456 3.952 1.32a6.65 6.65 0 0 1 1.867 2.194h-1.275a1.151 1.151 0 0 0 0 2.302h4.302a1.15 1.15 0 0 0 1.15-1.15V3.728a1.151 1.151 0 1 0-2.301 0M1.151 17.42a1.15 1.15 0 0 0 1.151-1.15v-1.85a8.9 8.9 0 0 0 2.799 2.982 8.84 8.84 0 0 0 4.894 1.474h.011a8.86 8.86 0 0 0 5.526-1.935 8.9 8.9 0 0 0 3.098-4.86 1.151 1.151 0 0 0-2.239-.538 6.6 6.6 0 0 1-2.295 3.598A6.55 6.55 0 0 1 10 16.575a6.55 6.55 0 0 1-3.627-1.09 6.6 6.6 0 0 1-2.192-2.425h1.272a1.151 1.151 0 0 0 0-2.302H1.151C.515 10.758 0 11.274 0 11.91v4.36a1.15 1.15 0 0 0 1.151 1.152"/></g><defs><clipPath id="a"><path fill="#fff" d="M0 0h20v20H0z"/></clipPath></defs></svg>